<?xml version="1.0" encoding="UTF-8"?>
<svg width="50px" height="50px" viewBox="0 0 50 50" version="1.1" xmlns="http://www.w3.org/2000/svg" xmlns:xlink="http://www.w3.org/1999/xlink">
    <g stroke="none" stroke-width="1" fill="none" fill-rule="evenodd">
        <g id="icon__password--check" fill="#3AD171">
            <circle id="Oval" fill-opacity="0.15" cx="25" cy="25" r="25"></circle>
            <path d="M22.2098461,36.3703704 C21.9491826,36.3703704 21.710241,36.325845 21.4930214,36.2367942 C21.2758018,36.1477434 21.0585822,35.9919045 20.8413627,35.7692775 L13.0866233,27.8214936 C12.739072,27.4652904 12.5652963,26.9977737 12.5652963,26.4189435 C12.5652963,25.8401133 12.7607939,25.3503339 13.1517892,24.9496053 C13.4993405,24.5934021 13.9663627,24.4041692 14.5528555,24.3819065 C15.1393484,24.3596438 15.6063705,24.5488767 15.9539219,24.9496053 L22.2098461,31.428051 L36.7418366,16.5343048 C37.0893879,16.1781016 37.5455491,16 38.11032,16 C38.6750909,16 39.152974,16.1781016 39.5439693,16.5343048 C39.8915206,16.9350334 40.0652963,17.4248128 40.0652963,18.003643 C40.0652963,18.5824732 39.8915206,19.0499899 39.5439693,19.4061931 L23.5783295,35.7692775 C23.3611099,35.9919045 23.1438903,36.1477434 22.9266707,36.2367942 C22.7094511,36.325845 22.4705096,36.3703704 22.2098461,36.3703704 L22.2098461,36.3703704 Z" id="icon--check" fill-rule="nonzero"></path>
        </g>
    </g>
</svg>