<?xml version="1.0" encoding="UTF-8"?>
<svg width="55px" height="47px" viewBox="0 0 55 47" version="1.1" xmlns="http://www.w3.org/2000/svg" xmlns:xlink="http://www.w3.org/1999/xlink">
    <title>icon__password--email</title>
    <g id="Module-1---Restaurateur" stroke="none" stroke-width="1" fill="none" fill-rule="evenodd">
        <g id="icon__password--email">
            <path d="M36.7775091,46.8518519 C36.5114873,46.8518519 36.267634,46.8077352 36.0459492,46.719502 C35.8242644,46.6312687 35.6025796,46.4768606 35.3808948,46.2562775 L27.4667473,38.3814606 C27.1120516,38.0285276 26.9347037,37.5653031 26.9347037,36.991787 C26.9347037,36.4182709 27.1342201,35.9329881 27.5332527,35.5359385 C27.8879484,35.1830055 28.3645707,34.9955099 28.9631197,34.9734516 C29.5616687,34.9513932 30.038291,35.1388889 30.3929867,35.5359385 L36.7775091,41.9549069 L51.6082225,27.197897 C51.9629182,26.8449641 52.4284563,26.6684976 53.0048368,26.6684976 C53.5812173,26.6684976 54.0689238,26.8449641 54.4679565,27.197897 C54.8226522,27.5949466 55,28.0802295 55,28.6537456 C55,29.2272616 54.8226522,29.6904862 54.4679565,30.0434191 L38.1741233,46.2562775 C37.9524385,46.4768606 37.7307537,46.6312687 37.5090689,46.719502 C37.2873841,46.8077352 37.0435308,46.8518519 36.7775091,46.8518519 L36.7775091,46.8518519 Z M25.4050786,21.374503 C25.7597743,21.5950861 26.11447,21.7053777 26.4691657,21.7053777 C26.8238613,21.7053777 27.178557,21.5950861 27.5332527,21.374503 L48.216445,8.20569157 C48.4381298,8.0733417 48.6154776,7.87481691 48.7484885,7.61011718 C48.8814994,7.34541745 48.9480048,7.0366011 48.9480048,6.68366813 C48.9480048,6.11015205 48.6708988,5.66898584 48.1166868,5.36016949 C47.5624748,5.05135314 46.9971786,5.07341145 46.4207981,5.42634442 L26.4691657,18.0657564 L6.51753325,5.42634442 C5.94115276,5.07341145 5.38694075,5.05135314 4.85489722,5.36016949 C4.32285369,5.66898584 4.05683192,6.11015205 4.05683192,6.68366813 C4.05683192,7.0366011 4.12333736,7.34541745 4.25634825,7.61011718 C4.38935913,7.87481691 4.56670697,8.0733417 4.78839178,8.20569157 L25.4050786,21.374503 Z M3.99032648,41.5578573 C2.92623942,41.5578573 1.99516324,41.1608077 1.19709794,40.3667085 C0.399032648,39.5726093 0,38.6461603 0,37.5873614 L0,3.97049592 C0,2.91169701 0.399032648,1.98524796 1.19709794,1.19114878 C1.99516324,0.397049592 2.92623942,0 3.99032648,0 L49.0145103,0 C50.0785973,0 51.0096735,0.397049592 51.8077388,1.19114878 C52.6058041,1.98524796 53.0048368,2.91169701 53.0048368,3.97049592 L53.0048368,21.5068529 C52.6058041,21.5068529 52.1735187,21.6061153 51.7079807,21.8046401 C51.2424426,22.0031649 50.8323257,22.2788938 50.47763,22.6318267 L36.6444982,36.3962126 L31.7230955,31.4992676 C30.9693672,30.7492851 30.038291,30.3742938 28.929867,30.3742938 C27.821443,30.3742938 26.8903668,30.7492851 26.1366385,31.4992676 L23.2769045,34.3447897 C22.5231761,35.0947723 22.146312,36.0101922 22.146312,37.0910494 C22.146312,38.1719066 22.5231761,39.0873265 23.2769045,39.8373091 L25.0060459,41.5578573 L3.99032648,41.5578573 Z" id="Shape" fill="#EBEBEB" fill-rule="nonzero"></path>
            <path d="M37.1445498,46.8518519 C36.8838863,46.8518519 36.6449447,46.8073265 36.4277251,46.7182757 C36.2105055,46.6292249 35.9932859,46.473386 35.7760664,46.250759 L28.021327,38.3029751 C27.6737757,37.9467719 27.5,37.4792552 27.5,36.900425 C27.5,36.3215948 27.6954976,35.8318154 28.0864929,35.4310868 C28.4340442,35.0748836 28.9010664,34.8856507 29.4875592,34.863388 C30.0740521,34.8411253 30.5410742,35.0303582 30.8886256,35.4310868 L37.1445498,41.9095325 L51.6765403,27.0157863 C52.0240916,26.6595831 52.4802528,26.4814815 53.0450237,26.4814815 C53.6097946,26.4814815 54.0876777,26.6595831 54.478673,27.0157863 C54.8262243,27.4165149 55,27.9062943 55,28.4851245 C55,29.0639547 54.8262243,29.5314714 54.478673,29.8876746 L38.5130332,46.250759 C38.2958136,46.473386 38.078594,46.6292249 37.8613744,46.7182757 C37.6441548,46.8073265 37.4052133,46.8518519 37.1445498,46.8518519 L37.1445498,46.8518519 Z" id="Path" fill="#3AD171"></path>
        </g>
    </g>
</svg>