<?xml version="1.0" encoding="UTF-8"?>
<svg width="275px" height="85px" viewBox="0 0 275 85" version="1.1" xmlns="http://www.w3.org/2000/svg" xmlns:xlink="http://www.w3.org/1999/xlink">
    <!-- Generator: Sketch 53 (72520) - https://sketchapp.com -->
    <title>Group</title>
    <desc>Created with Sketch.</desc>
    <g id="Page-1" stroke="none" stroke-width="1" fill="none" fill-rule="evenodd">
        <g id="Group" fill-rule="nonzero">
            <path d="M35.182,83.213 C35.662,83.693 36.232,83.933 36.892,83.933 L40.222,83.933 C40.882,83.933 41.45,83.693 41.932,83.213 C42.412,82.733 42.652,82.163 42.652,81.503 L42.652,22.473 C42.652,21.816 42.412,21.246 41.932,20.766 C41.45,20.286 40.882,20.046 40.222,20.046 L36.892,20.046 C36.232,20.046 35.662,20.286 35.182,20.766 C34.702,21.246 34.462,21.816 34.462,22.474 L34.462,42.362 C33.142,40.622 31.327,39.167 29.018,37.996 C26.708,36.826 23.874,36.242 20.515,36.242 C16.735,36.242 13.345,37.112 10.348,38.852 C7.348,40.592 4.934,43.066 3.104,46.275 C1.274,49.485 0.27,53.25 0.09,57.57 L0,60.447 L0.09,63.415 C0.27,67.735 1.273,71.515 3.104,74.755 C4.934,77.992 7.364,80.483 10.392,82.221 C13.422,83.961 16.795,84.831 20.515,84.831 C26.755,84.831 31.403,82.791 34.463,78.713 L34.463,81.501 C34.463,82.161 34.703,82.731 35.183,83.211 L35.182,83.213 Z M30.594,73.629 C28.194,75.939 25.134,77.092 21.414,77.092 C17.514,77.092 14.411,75.834 12.102,73.314 C9.792,70.794 8.517,67.374 8.278,63.057 L8.188,60.537 L8.278,58.017 C8.518,53.697 9.792,50.279 12.102,47.757 C14.412,45.24 17.515,43.98 21.415,43.98 C25.255,43.98 28.345,45.15 30.683,47.49 C33.023,49.83 34.283,53.1 34.463,57.297 C34.523,57.899 34.553,59.067 34.553,60.807 C34.553,62.607 34.523,63.807 34.463,64.407 C34.283,68.247 32.993,71.322 30.593,73.629 L30.594,73.629 Z M86.877,78.758 C88.407,77.05 89.291,75.383 89.531,73.765 C89.591,73.107 89.381,72.535 88.901,72.055 C88.421,71.575 87.821,71.335 87.103,71.335 L84.403,71.335 C83.743,71.335 83.219,71.425 82.829,71.605 C82.437,71.785 82.003,72.115 81.524,72.595 C80.204,74.033 78.719,75.145 77.07,75.925 C75.42,76.705 73.095,77.093 70.096,77.093 C66.436,77.093 63.451,75.97 61.142,73.718 C58.832,71.468 57.617,68.366 57.498,64.408 L57.498,63.866 L88.45,63.866 C89.11,63.866 89.68,63.626 90.162,63.146 C90.642,62.666 90.882,62.096 90.882,61.436 L90.882,59.006 C90.882,51.988 89.022,46.44 85.302,42.361 C81.582,38.284 76.514,36.243 70.096,36.243 C66.196,36.243 62.762,37.113 59.792,38.853 C56.822,40.593 54.452,42.963 52.684,45.961 C50.914,48.961 49.85,52.319 49.49,56.041 C49.368,57.839 49.31,59.219 49.31,60.177 C49.31,61.137 49.368,62.517 49.49,64.317 C49.85,68.217 50.913,71.727 52.684,74.844 C54.452,77.964 56.837,80.409 59.838,82.178 C62.838,83.948 66.256,84.831 70.096,84.831 C74.054,84.831 77.458,84.247 80.308,83.078 C83.158,81.91 85.348,80.468 86.878,78.758 L86.877,78.758 Z M57.497,56.038 C57.557,52.438 58.802,49.53 61.232,47.308 C63.662,45.091 66.616,43.98 70.096,43.98 C73.933,43.98 77.008,45.076 79.318,47.264 C81.628,49.454 82.783,52.379 82.783,56.039 L82.783,56.307 L57.498,56.307 L57.498,56.037 L57.497,56.038 Z M129.302,78.714 L129.302,81.502 C129.302,82.162 129.542,82.732 130.022,83.212 C130.502,83.692 131.072,83.932 131.732,83.932 L135.062,83.932 C135.72,83.932 136.29,83.694 136.772,83.212 C137.25,82.732 137.49,82.162 137.49,81.502 L137.49,39.572 C137.49,38.912 137.25,38.342 136.77,37.862 C136.29,37.382 135.72,37.142 135.06,37.142 L131.732,37.142 C131.072,37.142 130.502,37.382 130.022,37.862 C129.542,38.342 129.302,38.912 129.302,39.572 L129.302,63.327 C129.302,67.825 128.236,71.245 126.108,73.584 C123.978,75.924 120.993,77.094 117.155,77.094 C113.195,77.094 110.181,75.94 108.112,73.629 C106.042,71.319 105.007,67.886 105.007,63.326 L105.007,39.57 C105.007,38.913 104.767,38.343 104.287,37.86 C103.807,37.383 103.237,37.142 102.577,37.142 L99.247,37.142 C98.587,37.142 98.017,37.382 97.539,37.862 C97.057,38.342 96.819,38.912 96.819,39.572 L96.819,64.676 C96.819,70.914 98.542,75.834 101.992,79.433 C105.44,83.033 110.045,84.83 115.802,84.83 C121.682,84.83 126.182,82.793 129.302,78.714 L129.302,78.714 Z M166.733,57.208 C162.473,56.248 159.503,55.53 157.823,55.048 C156.145,54.57 154.885,53.938 154.045,53.158 C153.205,52.378 152.785,51.241 152.785,49.738 C152.785,47.94 153.64,46.532 155.35,45.51 C157.06,44.49 159.292,43.98 162.053,43.98 C166.733,43.98 170,45.182 171.861,47.58 C172.521,48.42 173.421,48.84 174.561,48.84 L177.531,48.84 C178.191,48.84 178.761,48.616 179.241,48.166 C179.721,47.714 179.961,47.19 179.961,46.59 C179.961,45.09 179.255,43.53 177.848,41.912 C176.438,40.292 174.382,38.942 171.684,37.862 C168.984,36.782 165.774,36.242 162.054,36.242 C158.276,36.242 155.081,36.857 152.474,38.087 C149.864,39.317 147.898,40.951 146.578,42.992 C145.258,45.03 144.598,47.282 144.598,49.739 C144.598,56.819 148.978,61.289 157.736,63.146 C161.934,64.044 165.024,64.78 167.004,65.349 C168.984,65.919 170.498,66.639 171.549,67.509 C172.599,68.379 173.123,69.533 173.123,70.972 C173.123,72.712 172.059,74.166 169.93,75.338 C167.797,76.506 165.324,77.09 162.505,77.09 C157.465,77.09 153.955,75.713 151.978,72.95 C151.618,72.412 151.228,72.084 150.808,71.962 C150.388,71.842 149.908,71.782 149.368,71.782 L146.128,71.782 C145.468,71.782 144.9,72.007 144.418,72.457 C143.936,72.907 143.698,73.433 143.698,74.03 C143.698,75.53 144.478,77.12 146.038,78.8 C147.598,80.48 149.803,81.905 152.652,83.074 C155.502,84.244 158.786,84.827 162.506,84.827 C166.286,84.827 169.6,84.182 172.449,82.893 C175.295,81.605 177.486,79.91 179.016,77.808 C180.544,75.712 181.31,73.433 181.31,70.97 C181.31,67.614 180.2,64.763 177.982,62.423 C175.764,60.083 172.012,58.347 166.732,57.206 L166.733,57.208 Z M224.32,63.866 C224.98,63.866 225.55,63.626 226.03,63.146 C226.51,62.666 226.75,62.096 226.75,61.436 L226.75,59.006 C226.75,51.988 224.89,46.44 221.172,42.361 C217.452,38.284 212.382,36.243 205.965,36.243 C202.065,36.243 198.631,37.113 195.661,38.853 C192.693,40.593 190.321,42.963 188.555,45.961 C186.785,48.961 185.721,52.319 185.361,56.041 C185.239,57.839 185.181,59.219 185.181,60.177 C185.181,61.137 185.239,62.517 185.361,64.317 C185.721,68.217 186.784,71.727 188.555,74.844 C190.323,77.964 192.707,80.409 195.708,82.178 C198.708,83.948 202.126,84.831 205.966,84.831 C209.924,84.831 213.328,84.247 216.179,83.078 C219.029,81.908 221.217,80.468 222.747,78.758 C224.277,77.05 225.161,75.383 225.401,73.765 C225.461,73.107 225.251,72.535 224.771,72.055 C224.291,71.575 223.691,71.335 222.971,71.335 L220.271,71.335 C219.611,71.335 219.087,71.425 218.698,71.605 C218.306,71.785 217.872,72.115 217.393,72.595 C216.073,74.033 214.587,75.145 212.939,75.925 C211.289,76.705 208.964,77.093 205.965,77.093 C202.305,77.093 199.32,75.97 197.012,73.718 C194.702,71.468 193.488,68.366 193.368,64.408 L193.368,63.866 L224.322,63.866 L224.32,63.866 Z M193.367,56.039 C193.427,52.437 194.671,49.529 197.101,47.309 C199.531,45.089 202.486,43.979 205.965,43.979 C209.803,43.979 212.877,45.075 215.188,47.263 C217.498,49.453 218.653,52.378 218.653,56.038 L218.653,56.306 L193.368,56.306 L193.368,56.036 L193.367,56.039 Z" id="Shape" fill="#231F20"></path>
            <path d="M274.57,17.32 L274.57,12.46 L265.85,12.46 L268.527,0 L263.045,0 L260.365,12.46 L247.345,12.46 L250.027,0 L244.545,0 L241.867,12.46 L231.213,12.46 L231.213,17.32 L240.869,17.32 L238.439,28.656 L227.662,28.656 L227.662,33.516 L237.382,33.516 L234.702,46.099 L240.186,46.099 L242.864,33.514 L255.884,33.514 L253.204,46.098 L258.687,46.098 L261.365,33.513 L270.959,33.513 L270.959,28.653 L262.425,28.653 L264.855,17.317 L274.572,17.317 L274.57,17.32 Z M256.94,28.656 L243.92,28.656 L246.35,17.319 L259.37,17.319 L256.94,28.655 L256.94,28.656 Z" id="Shape" fill="#FFC90D"></path>
        </g>
    </g>
</svg>
